<?xml version="1.0" encoding="UTF-8" standalone="no"?>
<!-- Created with Inkscape (http://www.inkscape.org/) -->

<svg
   xmlns:dc="http://purl.org/dc/elements/1.1/"
   xmlns:cc="http://creativecommons.org/ns#"
   xmlns:rdf="http://www.w3.org/1999/02/22-rdf-syntax-ns#"
   xmlns:svg="http://www.w3.org/2000/svg"
   xmlns="http://www.w3.org/2000/svg"
   xmlns:xlink="http://www.w3.org/1999/xlink"
   version="1.1"
   width="190.54999"
   height="340.34818"
   id="svg602"
   xml:space="preserve"><metadata
     id="metadata27"><rdf:RDF><cc:Work
         rdf:about=""><dc:format>image/svg+xml</dc:format><dc:type
           rdf:resource="http://purl.org/dc/dcmitype/StillImage" /><dc:title></dc:title></cc:Work></rdf:RDF></metadata><defs
     id="defs604"><linearGradient
       id="linearGradient650"><stop
         id="stop651"
         style="stop-color:#ffffff;stop-opacity:1"
         offset="0" /><stop
         id="stop652"
         style="stop-color:#333333;stop-opacity:1"
         offset="1" /></linearGradient><linearGradient
       id="linearGradient646"><stop
         id="stop647"
         style="stop-color:#b3b3eb;stop-opacity:0"
         offset="0" /><stop
         id="stop648"
         style="stop-color:#000000;stop-opacity:1"
         offset="1" /></linearGradient><linearGradient
       id="linearGradient640"><stop
         id="stop641"
         style="stop-color:#333333;stop-opacity:1"
         offset="0" /><stop
         id="stop642"
         style="stop-color:#ffffff;stop-opacity:1"
         offset="1" /></linearGradient><linearGradient
       x1="193.62866"
       y1="161.64732"
       x2="193.62814"
       y2="162.41747"
       id="linearGradient643"
       xlink:href="#linearGradient640"
       gradientUnits="userSpaceOnUse"
       gradientTransform="scale(0.6636838,1.5067416)"
       spreadMethod="reflect" /><radialGradient
       cx="158.02565"
       cy="169.19684"
       r="31.162628"
       fx="158.02565"
       fy="169.19684"
       id="radialGradient644"
       xlink:href="#linearGradient646"
       gradientUnits="userSpaceOnUse"
       gradientTransform="scale(0.66803974,1.4969169)"
       spreadMethod="reflect" /><linearGradient
       id="linearGradient649"
       xlink:href="#linearGradient650" /><radialGradient
       cx="85.527977"
       cy="170.14417"
       r="252.08325"
       fx="85.527977"
       fy="170.14417"
       id="radialGradient654"
       xlink:href="#linearGradient650"
       gradientUnits="userSpaceOnUse"
       gradientTransform="matrix(0.72965021,0,0,1.3705197,-22.308518,-183.14252)"
       spreadMethod="reflect" /><radialGradient
       cx="193.40065"
       cy="181.62012"
       r="68.141403"
       fx="193.40065"
       fy="181.62012"
       id="radialGradient656"
       xlink:href="#linearGradient650"
       gradientUnits="userSpaceOnUse"
       gradientTransform="scale(0.67783439,1.4752866)"
       spreadMethod="reflect" /><radialGradient
       cx="158.02565"
       cy="169.19684"
       r="31.162628"
       fx="158.02565"
       fy="169.19684"
       id="radialGradient644-2"
       xlink:href="#linearGradient646-6"
       gradientUnits="userSpaceOnUse"
       gradientTransform="scale(0.66803974,1.4969169)"
       spreadMethod="reflect" /><linearGradient
       id="linearGradient646-6"><stop
         id="stop647-2"
         style="stop-color:#b3b3eb;stop-opacity:0"
         offset="0" /><stop
         id="stop648-7"
         style="stop-color:#000000;stop-opacity:1"
         offset="1" /></linearGradient><radialGradient
       cx="85.527977"
       cy="170.14417"
       r="252.08325"
       fx="85.527977"
       fy="170.14417"
       id="radialGradient654-5"
       xlink:href="#linearGradient650-7"
       gradientUnits="userSpaceOnUse"
       gradientTransform="matrix(0.72965021,0,0,1.3705197,-22.308518,-183.14252)"
       spreadMethod="reflect" /><linearGradient
       id="linearGradient650-7"><stop
         id="stop651-8"
         style="stop-color:#ffffff;stop-opacity:1"
         offset="0" /><stop
         id="stop652-2"
         style="stop-color:#333333;stop-opacity:1"
         offset="1" /></linearGradient><radialGradient
       cx="85.527977"
       cy="170.14417"
       r="252.08325"
       fx="85.527977"
       fy="170.14417"
       id="radialGradient4132"
       xlink:href="#linearGradient650-7"
       gradientUnits="userSpaceOnUse"
       gradientTransform="matrix(0.72965021,0,0,1.3705197,-259.24107,-245.54564)"
       spreadMethod="reflect" /><radialGradient
       cx="85.527977"
       cy="170.14417"
       r="252.08325"
       fx="85.527977"
       fy="170.14417"
       id="radialGradient4168"
       xlink:href="#linearGradient650-7"
       gradientUnits="userSpaceOnUse"
       gradientTransform="matrix(0.72965021,0,0,1.3705197,-259.24107,-245.54564)"
       spreadMethod="reflect" /><radialGradient
       cx="85.527977"
       cy="170.14417"
       r="252.08325"
       fx="85.527977"
       fy="170.14417"
       id="radialGradient4171"
       xlink:href="#linearGradient650-7"
       gradientUnits="userSpaceOnUse"
       gradientTransform="matrix(0.72965021,0,0,1.3705197,-259.24107,-245.54564)"
       spreadMethod="reflect" /></defs><path
     d="m 95.287282,329.78568 c -73.23963,0 -84.31263,-65.0183 -83.55509,-85.6175 l 0,0 0,0 0,0 0,0 0,0 c 1.12756,-19.4293 2.06543,-97.586 -1.16969,-163.397199 0.82433,-71.9241003 55.77251,-70.2049 84.71258,-70.2049 28.939898,0 83.888098,-1.7192003 84.712398,70.2049 -3.2351,65.811199 -2.2972,143.967899 -1.1697,163.392999 l 0,0 0,0 0,0 0,0 0,0 c 0.7576,20.5992 -10.3154,85.6175 -83.554998,85.6175"
     id="path617"
     style="font-size:12px;fill:url(#radialGradient654);fill-rule:evenodd;stroke:#000000;stroke-width:1.12500405" /><path
     d="m 133.75,254.93353 a 15.9375,34.6875 0 1 1 -31.875,0 15.9375,34.6875 0 1 1 31.875,0 z"
     transform="matrix(0.980392,0,0,1.243243,-20.310969,-245.46588)"
     id="path655"
     style="fill:url(#radialGradient656);fill-opacity:1;fill-rule:evenodd;stroke:none" /><path
     d="m 95.264882,10.989881 0,118.578199"
     id="path618"
     style="font-size:12px;fill:none;stroke:#000000;stroke-width:1.25" /><path
     d="m 129.375,257.12103 a 11.5625,26.25 0 1 1 -23.125,0 11.5625,26.25 0 1 1 23.125,0 z"
     transform="translate(-22.308518,-186.26754)"
     id="path639"
     style="fill:url(#linearGradient643);fill-opacity:1;fill-rule:evenodd;stroke:none" /><path
     d="m 129.375,257.12103 a 11.5625,26.25 0 1 1 -23.125,0 11.5625,26.25 0 1 1 23.125,0 z"
     transform="translate(-22.308518,-186.26754)"
     id="path645"
     style="fill:url(#radialGradient644);fill-opacity:1;fill-rule:evenodd;stroke:#000000;stroke-width:0.55000001;stroke-linecap:butt;stroke-linejoin:miter;stroke-miterlimit:4;stroke-opacity:1;stroke-dasharray:none" /><path
     d="m 95.049082,129.50858 c -82.34601,0 -80.16141,3.297 -82.62234,3.922"
     id="path619"
     style="fill:none;stroke:#000000;stroke-width:1.25;stroke-linecap:round;stroke-linejoin:miter;stroke-opacity:1;stroke-dasharray:none" /><path
     d="m 95.264882,129.50528 c 83.169398,0 82.881998,4.6673 82.881998,4.6673"
     id="path620"
     style="font-size:12px;fill:none;stroke:#000000;stroke-width:1.25;stroke-linecap:round" /><path
     d="m 89.585863,10.81248 c -29.88569,0.07452 -78.22719,2.789906 -79,70.21875 0.8429,17.146806 1.40142,35.12386 1.75,52.6875 l 0.125,-0.0312 c 2.45595,-0.62373 0.31823,-3.9242 82.15625,-3.9375 l 0,-32.5 c -5.96182,-1.050322 -10.65625,-12.351813 -10.65625,-26.15625 0,-13.804437 4.69443,-25.105928 10.65625,-26.15625 l 0,-34.125 c -1.6139,-8.61e-4 -3.27839,-0.0044 -5.03125,0 z"
     id="path617-7"
     style="font-size:12px;fill:#ffa507;fill-opacity:0.64171125;fill-rule:evenodd;stroke:none" /></svg>